<svg width="217" height="125" viewBox="0 0 217 125" fill="none" xmlns="http://www.w3.org/2000/svg">
<path d="M216.793 62.4649C216.786 73.8988 213.029 85.1103 205.935 94.8709C198.841 104.632 188.684 112.564 176.575 117.8C175.866 118.112 175.146 118.41 174.42 118.698C174.094 118.832 173.774 118.957 173.443 119.082C171.374 119.878 169.251 120.593 167.075 121.227C165.36 121.73 163.6 122.186 161.822 122.58C145.032 126.333 127.206 125.031 111.441 118.899C110.795 118.645 110.149 118.386 109.515 118.117C97.7111 113.161 87.698 105.648 80.5102 96.3564C73.3224 87.0644 69.2204 76.3298 68.6282 65.2618C68.0359 54.1937 70.9748 43.1936 77.1412 33.398C83.3076 23.6024 92.4778 15.3667 103.704 9.54175C114.931 3.71678 127.807 0.513871 141.001 0.263945C154.196 0.0140188 167.231 2.72614 178.759 8.1201C190.287 13.514 199.89 21.3942 206.577 30.9463C213.263 40.4984 216.79 51.376 216.793 62.4553V62.4649Z" fill="url(#paint0_linear_1_150)"/>
<path d="M113.619 100.872L105.433 90.1375C105.433 90.1375 128.109 68.1318 130.378 66.8315C130.378 66.8315 118.94 82.9398 113.619 100.872Z" fill="url(#paint1_linear_1_150)"/>
<path d="M105.433 90.1375L90.0001 101.654L61.6085 90.1375L39.8876 91.1355C39.8876 91.1355 53.4174 94.9743 57.2243 94.8159L61.0369 94.6576C61.0369 94.6576 84.3526 113.53 89.7143 114.969C95.0759 116.409 112.687 105.123 112.687 105.123L113.71 100.905L105.433 90.1375Z" fill="url(#paint2_linear_1_150)"/>
<path d="M148.018 64.2259C145.873 65.0976 143.567 65.6558 141.199 65.8765C138.461 66.222 134.299 64.9456 134.299 64.9456C137.443 62.8679 136.711 57.9687 136.711 57.9687L136.78 57.9399C140.135 57.724 142.942 56.1261 144.903 54.581C144.194 58.7749 148.018 64.2259 148.018 64.2259Z" fill="url(#paint3_linear_1_150)"/>
<path d="M148.018 48.6214V51.5005C147.124 52.6189 146.081 53.6477 144.908 54.5667C142.948 56.1165 140.141 57.7144 136.786 57.9256C135.262 58.0233 133.731 57.8348 132.304 57.3737C123.159 54.4947 129.589 39.2596 129.589 39.2596C132.493 33.0601 145.64 36.0591 145.64 36.0591C147.401 37.8201 147.738 42.7385 147.669 43.2183C147.376 43.8925 146.993 44.5364 146.526 45.1377C146.526 45.1377 149.024 43.1608 149.881 44.4755C150.739 45.7903 148.018 48.6214 148.018 48.6214Z" fill="url(#paint4_linear_1_150)"/>
<path d="M148.018 51.51V48.631C148.018 48.631 150.733 45.8239 149.876 44.4995C149.018 43.1751 146.52 45.1617 146.52 45.1617C146.987 44.5604 147.37 43.9165 147.663 43.2423C147.732 42.7625 147.446 38.1224 145.634 36.0831C145.634 36.0831 132.487 33.084 129.584 39.2836C129.584 39.2836 125.822 38.4823 122.581 34.7251C117.283 28.5783 123.61 27.825 129.881 29.0102C137.489 30.4497 145.114 25.728 153.831 30.5265C162.548 35.3249 154.734 46.2318 148.018 51.51Z" fill="#262F72"/>
<g filter="url(#filter0_d_1_150)">
<path d="M88.1824 24.7203H14.0168C12.2237 24.7203 10.7701 25.9406 10.7701 27.4458V84.8543C10.7701 86.3596 12.2237 87.5799 14.0168 87.5799H88.1824C89.9755 87.5799 91.4291 86.3596 91.4291 84.8543V27.4458C91.4291 25.9406 89.9755 24.7203 88.1824 24.7203Z" fill="white"/>
</g>
<path d="M23.1225 36.1118C22.9166 36.3074 22.6521 36.4532 22.3565 36.5341C22.0038 36.6368 21.6324 36.6872 21.2591 36.6828C20.8716 36.6903 20.4888 36.6108 20.1501 36.4525C19.8293 36.2961 19.5723 36.0619 19.4128 35.7807C19.2311 35.4567 19.1392 35.1024 19.1441 34.7443V34.466C19.1337 34.1017 19.2176 33.7399 19.3899 33.4055C19.538 33.1219 19.7852 32.8826 20.0987 32.7193C20.4781 32.5469 20.9068 32.4659 21.3376 32.4854C21.7684 32.5049 22.1843 32.624 22.5394 32.8297C22.8804 33.0914 23.0856 33.4549 23.111 33.8422H22.1336C22.1114 33.6466 22.0059 33.4642 21.8364 33.3287C21.6567 33.2131 21.4337 33.1553 21.2076 33.1656C21.0552 33.1584 20.9032 33.1842 20.7661 33.2405C20.629 33.2968 20.5113 33.3817 20.4245 33.4871C20.2239 33.7777 20.1304 34.1116 20.1559 34.4468V34.7059C20.1311 35.0435 20.233 35.3792 20.4474 35.6656C20.5463 35.775 20.6756 35.8625 20.8241 35.9202C20.9726 35.9779 21.1357 36.0042 21.2991 35.9967C21.5885 36.0179 21.8766 35.9458 22.105 35.7951V35.0898H21.1905V34.4708H23.111L23.1225 36.1118Z" fill="#64B5F6"/>
<path d="M81.8948 32.4794H29.3415C28.7007 32.4794 28.1812 32.9155 28.1812 33.4535V36.9947C28.1812 37.5327 28.7007 37.9688 29.3415 37.9688H81.8948C82.5356 37.9688 83.0551 37.5327 83.0551 36.9947V33.4535C83.0551 32.9155 82.5356 32.4794 81.8948 32.4794Z" fill="#E7EEF2"/>
<path d="M83.0551 41.0686H28.1812V42.0283H83.0551V41.0686Z" fill="#BBDEFB"/>
<path d="M83.0551 43.2279H28.1812V44.1876H83.0551V43.2279Z" fill="#E7E8E9"/>
<path d="M83.0551 45.3872H28.1812V46.3469H83.0551V45.3872Z" fill="#E7E8E9"/>
<path d="M83.0551 47.5465H28.1812V48.5062H83.0551V47.5465Z" fill="#E7E8E9"/>
<path d="M83.0551 51.5868H28.1812V52.5465H83.0551V51.5868Z" fill="#BBDEFB"/>
<path d="M83.0551 53.7461H28.1812V54.7058H83.0551V53.7461Z" fill="#E7E8E9"/>
<path d="M83.0551 55.9054H28.1812V56.8651H83.0551V55.9054Z" fill="#E7E8E9"/>
<path d="M83.0551 58.0647H28.1812V59.0244H83.0551V58.0647Z" fill="#E7E8E9"/>
<path d="M83.0551 61.985H28.1812V62.9447H83.0551V61.985Z" fill="#BBDEFB"/>
<path d="M83.0551 64.1443H28.1812V65.104H83.0551V64.1443Z" fill="#E7E8E9"/>
<path d="M83.0551 66.3036H28.1812V67.2633H83.0551V66.3036Z" fill="#E7E8E9"/>
<path d="M83.0551 68.4629H28.1812V69.4226H83.0551V68.4629Z" fill="#E7E8E9"/>
<path d="M83.0551 72.3832H28.1812V73.3429H83.0551V72.3832Z" fill="#BBDEFB"/>
<path d="M83.0551 74.5425H28.1812V75.5022H83.0551V74.5425Z" fill="#E7E8E9"/>
<path d="M83.0551 76.7018H28.1812V77.6615H83.0551V76.7018Z" fill="#E7E8E9"/>
<path d="M83.0551 78.8611H28.1812V79.8208H83.0551V78.8611Z" fill="#E7E8E9"/>
<path d="M167.79 87.4071C171.699 97.1768 174.597 108.487 176.575 117.8C175.866 118.112 175.146 118.41 174.42 118.698C174.094 118.832 173.774 118.957 173.443 119.082C171.374 119.878 169.251 120.593 167.075 121.227C165.36 121.73 163.6 122.186 161.822 122.58C145.032 126.333 127.206 125.031 111.441 118.899C110.795 118.645 110.149 118.386 109.515 118.117C110.658 113.189 112.018 107.397 113.613 100.876C114.192 98.5123 114.8 96.0523 115.436 93.4964C118.712 80.4014 123.41 73.2709 127.292 69.4082L127.332 69.3698C128.069 68.6355 128.867 67.946 129.721 67.3065C129.745 67.2833 129.772 67.2623 129.801 67.2441C129.995 67.1001 130.19 66.9658 130.372 66.8362C132.71 65.2384 134.299 64.9456 134.299 64.9456L134.442 64.9888H134.522C135.764 65.3999 137.065 65.6694 138.392 65.7902H138.615H138.649C139.497 65.8583 140.349 65.8695 141.199 65.8238H141.25C143.609 65.6975 145.907 65.1408 147.984 64.1923C150.418 64.8683 152.712 65.8609 154.78 67.1337C160.69 70.7758 172.597 84.1298 172.597 84.1298L167.79 87.4071Z" fill="url(#paint5_linear_1_150)"/>
<path d="M189.562 105.641C189.528 106.975 188.082 109.681 185.967 112.964C182.983 114.771 179.841 116.388 176.569 117.8C175.861 118.112 175.14 118.41 174.414 118.698C174.089 118.832 173.769 118.957 173.437 119.082C171.368 119.878 169.245 120.593 167.069 121.227L172.591 106.452L158.301 93.8562L167.784 87.4071L172.591 84.1394C172.591 84.1394 189.711 100.483 189.562 105.641Z" fill="url(#paint6_linear_1_150)"/>
<defs>
<filter id="filter0_d_1_150" x="0.770081" y="18.7203" width="100.659" height="82.8595" filterUnits="userSpaceOnUse" color-interpolation-filters="sRGB">
<feFlood flood-opacity="0" result="BackgroundImageFix"/>
<feColorMatrix in="SourceAlpha" type="matrix" values="0 0 0 0 0 0 0 0 0 0 0 0 0 0 0 0 0 0 127 0" result="hardAlpha"/>
<feOffset dy="4"/>
<feGaussianBlur stdDeviation="5"/>
<feColorMatrix type="matrix" values="0 0 0 0 0 0 0 0 0 0 0 0 0 0 0 0 0 0 0.15 0"/>
<feBlend mode="normal" in2="BackgroundImageFix" result="effect1_dropShadow_1_150"/>
<feBlend mode="normal" in="SourceGraphic" in2="effect1_dropShadow_1_150" result="shape"/>
</filter>
<linearGradient id="paint0_linear_1_150" x1="142.978" y1="7.00488" x2="141.191" y2="129.654" gradientUnits="userSpaceOnUse">
<stop stop-color="white" stop-opacity="0"/>
<stop offset="1" stop-color="#64B5F6" stop-opacity="0.6"/>
</linearGradient>
<linearGradient id="paint1_linear_1_150" x1="119.706" y1="64.5474" x2="116.675" y2="97.8907" gradientUnits="userSpaceOnUse">
<stop stop-color="#42A5F5"/>
<stop offset="1" stop-color="#1565C0"/>
</linearGradient>
<linearGradient id="paint2_linear_1_150" x1="70.2397" y1="99.5328" x2="117.342" y2="106.969" gradientUnits="userSpaceOnUse">
<stop stop-color="#FFE082"/>
<stop offset="1" stop-color="#FFA726"/>
</linearGradient>
<linearGradient id="paint3_linear_1_150" x1="10660.6" y1="2398.9" x2="10663" y2="2183.15" gradientUnits="userSpaceOnUse">
<stop stop-color="#FFE082"/>
<stop offset="1" stop-color="#FFA726"/>
</linearGradient>
<linearGradient id="paint4_linear_1_150" x1="16965.5" y1="3842.42" x2="17863.4" y2="3842.42" gradientUnits="userSpaceOnUse">
<stop stop-color="#FFE082"/>
<stop offset="1" stop-color="#FFA726"/>
</linearGradient>
<linearGradient id="paint5_linear_1_150" x1="48618.5" y1="14238" x2="54127" y2="20596.1" gradientUnits="userSpaceOnUse">
<stop stop-color="#42A5F5"/>
<stop offset="1" stop-color="#1565C0"/>
</linearGradient>
<linearGradient id="paint6_linear_1_150" x1="26047.3" y1="11563" x2="25728.2" y2="9170.41" gradientUnits="userSpaceOnUse">
<stop stop-color="#FFE082"/>
<stop offset="1" stop-color="#FFA726"/>
</linearGradient>
</defs>
</svg>
